<svg xmlns="http://www.w3.org/2000/svg" viewBox="0 0 512 512"><path fill="#ffd161" d="M256 512c-23.257 0-45.123-9.057-61.57-25.502L25.503 317.57C9.056 301.124 0 279.258 0 256c0-23.257 9.057-45.123 25.502-61.57L194.43 25.503C210.876 9.057 232.742 0 256 0s45.126 9.057 61.572 25.504L486.497 194.43C502.944 210.877 512 232.743 512 256c0 23.258-9.056 45.124-25.502 61.57L317.57 486.497C301.125 502.943 279.259 512 256 512" data-original="#ffd161"/><path fill="#ffd161" d="M256 512c-23.257 0-45.123-9.057-61.57-25.502L25.503 317.57C9.056 301.124 0 279.258 0 256c0-23.257 9.057-45.123 25.502-61.57L194.43 25.503C210.876 9.057 232.742 0 256 0s45.126 9.057 61.572 25.504L486.497 194.43C502.944 210.877 512 232.743 512 256c0 23.258-9.056 45.124-25.502 61.57L317.57 486.497C301.125 502.943 279.259 512 256 512" data-original="#ffd161"/><path fill="#ffd161" d="M256 512c-23.257 0-45.123-9.057-61.57-25.502L25.503 317.57C9.056 301.124 0 279.258 0 256c0-23.257 9.057-45.123 25.502-61.57L194.43 25.503C210.876 9.057 232.742 0 256 0s45.126 9.057 61.572 25.504L486.497 194.43C502.944 210.877 512 232.743 512 256c0 23.258-9.056 45.124-25.502 61.57L317.57 486.497C301.125 502.943 279.259 512 256 512" data-original="#ffd161"/><path fill="#ffb561" d="M486.497 194.43 317.572 25.504C302.76 10.692 283.546 1.898 262.883.292a87.1 87.1 0 0 1 25.154 17.555l168.926 168.926c16.447 16.448 25.503 38.313 25.503 61.57 0 23.258-9.056 45.124-25.502 61.57L288.036 478.84c-16.445 16.445-38.311 25.503-61.57 25.503-2.311 0-4.603-.115-6.883-.292C230.857 509.248 243.215 512 256 512c23.259 0 45.125-9.057 61.57-25.503L486.498 317.57C502.944 301.124 512 279.258 512 256c0-23.257-9.056-45.124-25.503-61.57" data-original="#ffb561"/><path fill="#2d415a" d="M256 479.183c-14.493 0-28.117-5.643-38.366-15.891L48.707 294.366C38.46 284.117 32.817 270.493 32.817 256s5.643-28.117 15.891-38.366L217.634 48.709C227.883 38.46 241.507 32.817 256 32.817s28.118 5.643 38.366 15.892l168.927 168.926c10.248 10.249 15.891 23.873 15.891 38.366s-5.643 28.118-15.891 38.366L294.366 463.293c-10.248 10.247-23.873 15.89-38.366 15.89" data-original="#2d415a"/><path fill="#ffd161" d="M225.369 455.558 56.442 286.631c-16.917-16.917-16.917-44.344 0-61.261L225.369 56.442c16.917-16.917 44.344-16.917 61.261 0l168.928 168.927c16.917 16.917 16.917 44.344 0 61.261L286.631 455.558c-16.917 16.916-44.345 16.916-61.262 0" data-original="#ffd161"/><path fill="#2d415a" d="M402.907 244.7c-9.66-2.024-57.392 32.381-57.392 32.381-31.741-14-60.536-19.993-87.605-22.532-1.512-5.112-2.864-11.735-.963-14.909 3.168-5.29-3.174-22.503-30.577 13.234-13.408-.26-26.484-.079-39.392-.079-44.672 0-73.392 19.399-77.476 20.996-6.622 2.591 5.825 9.076 11.163 12.374 6.726-1.421 14.92-2.172 23.127-.462 0 0-4.399 3.001-9.025 6.745 15.062 4.892 34.695 7.035 54.714 7.616 4.816 9.699 13.063 20.214 26.476 21.541 25.571 2.53 1.757-10.437 2.299-15.59.138-1.309.234-3.522.449-6.09 30.909-1.085 57.611-4.705 63.169-6.148 1.636-.426 16.478 7.083 17.047 2.529s23.865-10.625 23.865-8.095 11.364 6.071 11.364 4.554c0-.724 1.95-3.626 4.843-5.759 3.171-2.339 7.476-3.752 11.637-.312 7.955 6.578 42.049 19.733 42.618 17.202.568-2.53-5.683-4.554-13.638-22.262-7.956-17.708 32.957-34.91 23.297-36.934m-270.856 27.06c-1.469 0-2.66-1.06-2.66-2.368s1.191-2.368 2.66-2.368 2.66 1.061 2.66 2.368c0 1.308-1.191 2.368-2.66 2.368m208.993-68.007c-10.757 0-15.932-8.279-20.09-14.93-3.796-6.07-6.348-9.791-10.817-9.791-4.467 0-7.019 3.72-10.813 9.79-4.158 6.653-9.332 14.932-20.089 14.932s-15.931-8.279-20.089-14.932c-3.794-6.07-6.346-9.79-10.813-9.79s-7.019 3.72-10.813 9.79c-4.158 6.653-9.332 14.932-20.089 14.932s-15.93-8.279-20.088-14.932c-3.794-6.07-6.346-9.79-10.813-9.79-4.466 0-7.018 3.72-10.811 9.79-4.157 6.653-9.331 14.932-20.087 14.932s-15.929-8.28-20.086-14.932c-3.793-6.07-6.345-9.79-10.811-9.79a5.47 5.47 0 0 1 0-10.938c10.756 0 15.93 8.28 20.087 14.933 3.793 6.069 6.345 9.789 10.81 9.789s7.018-3.72 10.811-9.79c4.158-6.653 9.331-14.932 20.087-14.932s15.931 8.28 20.089 14.932c3.794 6.07 6.345 9.79 10.812 9.79s7.019-3.72 10.813-9.79c4.158-6.653 9.332-14.932 20.089-14.932s15.932 8.28 20.09 14.932c3.794 6.07 6.346 9.79 10.813 9.79s7.019-3.72 10.813-9.79c4.158-6.653 9.332-14.932 20.089-14.932 10.758 0 15.934 8.279 20.093 14.932 3.795 6.07 6.347 9.79 10.815 9.79 4.469 0 7.021-3.72 10.815-9.79 4.159-6.653 9.333-14.932 20.091-14.932a5.469 5.469 0 1 1 0 10.938c-4.469 0-7.021 3.72-10.815 9.79-4.159 6.652-9.334 14.931-20.093 14.931" data-original="#2d415a"/></svg>
